<?xml version="1.0" standalone="no"?>
<!DOCTYPE svg PUBLIC "-//W3C//DTD SVG 20010904//EN"
 "http://www.w3.org/TR/2001/REC-SVG-20010904/DTD/svg10.dtd">
<svg version="1.0" xmlns="http://www.w3.org/2000/svg"
 width="1200.000000pt" height="630.000000pt" viewBox="0 0 1200.000000 630.000000"
 preserveAspectRatio="xMidYMid meet">

<g transform="translate(0.000000,630.000000) scale(0.100000,-0.100000)"
fill="#000000" stroke="none">
<path d="M0 3150 l0 -3150 110 0 110 0 0 3150 0 3150 -110 0 -110 0 0 -3150z"/>
<path d="M11770 3150 l0 -3150 115 0 115 0 0 3150 0 3150 -115 0 -115 0 0
-3150z"/>
<path d="M5730 6253 c-738 -72 -1384 -368 -1904 -872 -89 -86 -236 -245 -284
-308 l-32 -41 22 -8 c22 -7 22 -7 3 -14 -11 -4 -23 -3 -26 2 -6 10 -69 -73
-150 -197 -234 -359 -408 -835 -469 -1285 -20 -147 -24 -532 -6 -695 22 -205
101 -575 123 -575 3 0 3 10 0 22 -5 18 0 26 20 36 17 7 31 8 36 3 13 -13 37
12 37 37 0 11 7 22 15 26 9 3 15 0 15 -9 0 -9 6 -12 15 -9 11 5 12 11 4 25 -7
15 -6 23 6 36 16 15 17 11 13 -56 -2 -55 1 -74 12 -81 12 -8 12 -10 1 -10 -8
0 -20 8 -28 18 -13 15 -14 15 -9 0 7 -23 -40 -54 -59 -38 -8 7 -15 7 -19 1 -3
-5 -1 -11 6 -13 8 -3 7 -11 -5 -28 -18 -26 -19 -24 -21 43 -1 25 3 36 11 33 7
-3 10 1 6 10 -9 25 -20 15 -37 -35 -16 -49 -16 -51 14 -134 86 -244 270 -612
295 -589 5 4 5 1 1 -5 -13 -23 227 -359 247 -346 6 3 7 1 4 -4 -21 -34 480
-518 515 -497 6 4 8 3 4 -4 -4 -6 32 -38 86 -77 67 -48 94 -62 100 -53 6 10 8
9 8 -4 0 -9 27 -33 62 -56 93 -58 258 -145 264 -139 3 3 13 -2 23 -12 10 -10
75 -41 144 -70 170 -69 161 -66 153 -53 -4 7 -1 12 9 12 10 0 15 -6 12 -13 -6
-15 128 -60 180 -61 22 0 29 -3 20 -9 -7 -5 -1 -6 16 -2 17 3 26 2 23 -4 -7
-11 170 -54 196 -48 10 3 16 2 14 -2 -3 -4 44 -15 103 -24 349 -56 740 -47
1094 24 611 123 1186 440 1630 899 152 157 272 304 261 322 -4 6 -3 8 4 4 22
-13 222 306 314 501 53 112 54 115 35 107 -7 -2 -18 9 -26 28 -8 18 -16 36
-18 39 -2 3 13 6 33 7 35 1 36 0 32 -29 -8 -51 9 -19 56 113 48 132 53 153 36
143 -6 -4 -10 11 -10 37 1 34 3 39 11 25 5 -9 7 -22 4 -27 -3 -6 -2 -10 4 -10
22 0 94 305 123 521 17 125 17 613 0 739 -16 118 -69 378 -87 428 l-14 37 -1
-30 c-2 -16 -2 -33 -2 -36 1 -4 -7 -5 -18 -2 -18 5 -18 7 -3 29 14 22 11 29
-11 25 -5 -1 -6 5 -2 14 3 9 6 22 6 28 0 6 7 2 16 -9 15 -18 15 -18 10 6 -3
14 -6 29 -6 33 0 5 -5 5 -12 1 -8 -5 -9 -2 -4 11 9 25 -54 201 -66 183 -7 -9
-8 -5 -4 12 6 30 -83 245 -102 245 -14 0 -32 23 -32 40 1 6 7 1 15 -9 40 -53
-15 55 -111 220 -123 209 -397 556 -425 538 -5 -3 -9 -2 -8 3 4 23 -9 38 -108
128 -245 223 -486 390 -748 520 -345 171 -663 264 -1055 310 -113 14 -495 19
-600 8z m-750 -177 c0 -3 -4 -8 -10 -11 -5 -3 -10 -1 -10 4 0 6 5 11 10 11 6
0 10 -2 10 -4z m1350 -61 c136 -15 238 -34 361 -65 44 -11 84 -18 89 -15 4 3
10 1 12 -3 5 -15 162 -62 188 -57 20 4 21 4 6 -3 -15 -7 -3 -14 60 -37 87 -31
307 -137 395 -191 36 -21 64 -32 75 -28 14 4 15 3 6 -3 -9 -7 4 -21 50 -50 35
-23 102 -70 150 -106 59 -44 90 -62 100 -56 34 22 97 -9 92 -45 -3 -24 -7 -27
-24 -16 -10 7 -11 10 -2 10 6 0 12 7 12 15 0 18 -12 19 -28 3 -9 -9 -17 -7
-34 8 -13 10 13 -15 57 -57 121 -114 149 -136 165 -132 10 3 11 2 4 -4 -8 -5
4 -26 38 -63 27 -30 86 -99 130 -152 44 -54 85 -95 90 -92 5 3 8 0 6 -7 -1 -8
33 -68 76 -134 44 -66 101 -159 126 -208 26 -48 50 -85 53 -82 4 3 5 2 3 -1
-3 -3 7 -32 21 -63 99 -220 168 -421 209 -606 14 -66 28 -127 31 -135 4 -8 5
-19 4 -23 -1 -5 5 -61 14 -124 61 -472 -3 -949 -194 -1430 -38 -97 -158 -328
-222 -428 -127 -200 -237 -335 -423 -520 -118 -117 -180 -186 -178 -197 2 -11
9 -15 19 -11 12 5 15 2 10 -10 -4 -11 -1 -17 8 -17 8 0 15 5 15 10 0 6 9 10
21 10 18 0 20 -4 15 -27 -5 -19 -4 -23 3 -14 11 17 41 7 41 -13 0 -8 -7 -19
-16 -24 -10 -6 -13 -12 -6 -16 6 -3 17 1 25 9 9 8 23 12 32 9 14 -6 14 -8 -2
-26 -10 -11 -25 -17 -36 -14 -15 4 -18 0 -14 -15 4 -15 1 -19 -11 -17 -9 2
-17 10 -17 18 0 20 -30 62 -38 53 -4 -3 -7 -1 -7 5 0 7 4 12 10 12 5 0 7 7 4
15 -4 9 -16 13 -33 11 -16 -2 -37 5 -51 16 l-23 19 21 6 c12 3 22 9 22 14 0
16 -16 9 -41 -18 -13 -14 -19 -23 -12 -19 6 3 14 2 18 -3 3 -6 -4 -8 -16 -6
-14 3 -52 -18 -118 -64 -170 -122 -377 -239 -556 -316 -88 -38 -321 -116 -417
-140 -431 -110 -959 -113 -1358 -10 -34 9 -71 13 -83 9 -12 -3 -19 -3 -14 2 4
4 -61 31 -145 59 -84 28 -201 73 -260 99 -59 26 -112 44 -119 40 -8 -4 -9 -3
-5 4 8 14 -90 66 -106 56 -6 -4 -9 -3 -5 2 3 5 -25 27 -61 48 -37 22 -108 68
-159 102 l-92 63 -35 -14 c-19 -8 -42 -12 -51 -8 -10 3 -21 0 -26 -8 -6 -10
-9 -10 -9 -1 0 6 -10 12 -22 12 -33 0 -14 11 21 12 18 1 31 6 31 13 0 21 32
27 52 9 10 -10 20 -15 23 -12 2 2 -34 35 -80 72 -160 127 -407 379 -494 504
-12 18 -27 29 -33 26 -6 -4 -8 -2 -4 4 3 6 -18 44 -47 85 -57 79 -139 213
-176 284 -25 51 -33 54 -24 12 5 -25 3 -31 -8 -27 -8 3 -14 10 -14 16 0 5 -3
13 -7 17 -3 4 -3 19 2 35 6 22 -1 47 -37 126 -51 110 -147 396 -186 554 -15
58 -25 92 -23 77 2 -15 -1 -26 -7 -24 -12 4 -17 80 -6 88 5 3 1 59 -8 125 -23
166 -23 504 1 684 23 176 68 382 111 511 19 57 33 110 30 119 -3 8 -6 29 -9
47 -2 23 0 30 10 26 8 -3 14 -15 14 -27 1 -11 16 15 34 59 18 44 45 104 60
133 15 30 25 59 23 65 -2 7 0 22 4 35 7 17 5 22 -9 22 -14 0 -15 2 -2 9 20 13
32 3 25 -20 -13 -39 4 -17 45 59 23 42 72 122 108 177 113 170 105 153 82 172
-15 13 -16 19 -7 25 9 6 9 10 -2 17 -7 5 -10 14 -6 21 5 8 13 6 27 -7 11 -10
22 -17 24 -15 2 1 4 0 4 -3 0 -3 0 -10 0 -16 0 -5 -4 -7 -10 -4 -5 3 -10 -1
-10 -9 0 -9 2 -16 5 -16 2 0 30 32 61 71 93 116 178 208 297 318 104 96 341
282 396 311 19 10 21 14 10 22 -11 8 -10 8 4 4 25 -8 43 4 26 16 -11 7 -9 8 4
4 12 -4 44 9 85 33 106 61 279 145 375 181 60 23 83 36 75 42 -9 6 -6 7 8 4
11 -4 53 5 93 19 84 28 295 81 365 91 26 4 44 9 38 13 -5 3 18 7 52 8 33 2 95
7 136 12 124 14 493 12 630 -4z m-1935 -425 c-3 -5 -12 -10 -18 -10 -7 0 -6 4
3 10 19 12 23 12 15 0z m3630 -118 c-3 -8 0 -22 7 -31 11 -14 11 -14 -3 -4 -9
7 -20 9 -24 5 -5 -4 -5 -2 -2 4 4 7 0 17 -8 24 -11 9 -12 15 -2 25 15 16 41
-1 32 -23z m-3940 -62 c3 -5 2 -10 -4 -10 -5 0 -13 5 -16 10 -3 6 -2 10 4 10
5 0 13 -4 16 -10z m60 -21 c2 -3 -11 -21 -30 -39 -38 -37 -51 -35 -41 7 5 19
10 23 16 14 10 -17 31 -5 24 14 -5 13 18 16 31 4z m4094 -126 c7 -12 13 -14
18 -7 5 7 14 4 25 -8 20 -20 11 -30 -20 -21 -22 5 -60 53 -43 53 6 0 15 -8 20
-17z m-4519 -28 c0 -8 -2 -15 -4 -15 -2 0 -6 7 -10 15 -3 8 -1 15 4 15 6 0 10
-7 10 -15z m4414 -64 c9 -14 -4 -41 -19 -41 -21 0 -36 25 -23 38 14 14 35 16
42 3z m-4261 -48 c-7 -2 -19 -2 -25 0 -7 3 -2 5 12 5 14 0 19 -2 13 -5z m4607
-104 c0 -14 -27 -10 -33 5 -4 10 0 12 14 9 10 -3 19 -9 19 -14z m41 -60 c14
-20 18 -34 11 -41 -6 -6 -12 -6 -17 3 -5 8 -4 10 3 5 18 -11 14 3 -9 35 -11
16 -18 29 -15 29 2 0 14 -14 27 -31z m-5014 -1 c-3 -8 -6 -5 -6 6 -1 11 2 17
5 13 3 -3 4 -12 1 -19z m4823 -62 c0 -11 -19 -15 -25 -6 -3 5 1 10 9 10 9 0
16 -2 16 -4z m44 -61 c3 -8 1 -15 -4 -15 -6 0 -10 7 -10 15 0 8 2 15 4 15 2 0
6 -7 10 -15z m286 -88 c0 -5 -4 -5 -10 -2 -5 3 -10 14 -10 23 0 15 2 15 10 2
5 -8 10 -19 10 -23z m30 -46 c0 -3 -5 -13 -10 -21 -7 -11 -10 -11 -10 -2 0 7
-4 11 -9 8 -5 -4 -7 3 -4 13 4 18 33 19 33 2z m-5150 -22 c-7 -11 -14 -18 -17
-15 -8 8 5 36 17 36 7 0 7 -6 0 -21z m4995 -58 c3 -5 1 -12 -5 -16 -5 -3 -10
-1 -10 5 0 6 -4 9 -9 5 -5 -3 -12 -1 -16 5 -3 5 3 10 14 10 11 0 22 -4 26 -9z
m235 -131 c0 -5 -4 -10 -10 -10 -5 0 -10 5 -10 10 0 6 5 10 10 10 6 0 10 -4
10 -10z m-116 -6 c9 -3 16 -13 16 -22 0 -13 -3 -12 -15 4 -13 16 -16 17 -25 4
-5 -8 -10 -10 -10 -4 0 10 9 24 16 24 1 0 9 -3 18 -6z m-4 -75 c0 -14 -17 -10
-23 5 -4 10 -1 13 9 9 7 -3 14 -9 14 -14z m-5283 -11 c2 -17 0 -19 -7 -8 -5 8
-6 18 -4 22 8 12 10 10 11 -14z m5511 -123 l-3 -30 -19 28 c-16 24 -17 32 -6
55 l12 27 10 -25 c5 -13 8 -38 6 -55z m-5742 -9 c18 -19 18 -21 -6 -23 -14 -1
-20 4 -20 18 0 23 6 24 26 5z m5590 -51 c-6 -11 -12 -22 -14 -25 -6 -8 -20 23
-16 34 3 7 13 12 23 12 16 0 17 -3 7 -21z m1 -77 c-3 -8 -6 -5 -6 6 -1 11 2
17 5 13 3 -3 4 -12 1 -19z m218 -97 c3 -5 1 -12 -5 -16 -5 -3 -10 1 -10 9 0
18 6 21 15 7z m-5927 -38 c-2 -14 4 -18 30 -17 33 2 37 -2 23 -25 -6 -9 -11
-10 -15 -2 -4 6 -16 11 -26 11 -23 0 -32 13 -24 34 8 21 16 20 12 -1z m5932
-3 c0 -5 -2 -10 -4 -10 -3 0 -8 5 -11 10 -3 6 -1 10 4 10 6 0 11 -4 11 -10z
m-5779 -169 c-3 -20 -6 -22 -15 -9 -6 8 -14 15 -19 16 -21 2 -26 9 -21 29 4
13 10 20 15 17 5 -3 9 2 9 10 0 9 5 16 10 16 6 0 11 12 12 28 1 15 4 2 7 -28
3 -30 4 -66 2 -79z m5629 119 c0 -5 -2 -10 -4 -10 -3 0 -8 5 -11 10 -3 6 -1
10 4 10 6 0 11 -4 11 -10z m-5655 -10 c3 -5 2 -10 -4 -10 -5 0 -13 5 -16 10
-3 6 -2 10 4 10 5 0 13 -4 16 -10z m5705 -97 c0 -7 -9 -13 -21 -13 -18 0 -20
4 -15 38 3 20 6 48 6 62 1 17 6 8 15 -25 8 -27 14 -56 15 -62z m15 67 c3 -5 2
-10 -4 -10 -5 0 -13 5 -16 10 -3 6 -2 10 4 10 5 0 13 -4 16 -10z m191 -188 c7
-53 3 -61 -19 -41 -7 7 -11 32 -8 67 4 65 16 53 27 -26z m-41 -22 c4 -30 4
-53 2 -50 -13 14 -37 71 -28 66 7 -5 11 3 11 20 0 43 8 23 15 -36z m-27 -23
c20 -24 -25 -56 -47 -34 -8 8 -11 7 -11 -5 0 -9 8 -18 18 -21 13 -3 10 -7 -13
-18 -16 -7 -33 -18 -37 -23 -10 -14 -21 40 -14 68 9 36 82 59 104 33z m-5888
-87 c0 -5 -7 -7 -15 -4 -8 4 -15 8 -15 10 0 2 7 4 15 4 8 0 15 -4 15 -10z
m5948 -115 c-3 -3 -9 2 -12 12 -6 14 -5 15 5 6 7 -7 10 -15 7 -18z m21 -488
c-1 -17 -2 -18 -6 -4 -2 9 -9 15 -14 12 -5 -3 -6 1 -3 9 8 22 24 10 23 -17z
m4 -39 c2 -7 1 -22 -4 -33 -7 -18 -8 -17 -8 7 -1 14 -7 29 -13 31 -8 4 -7 6 3
6 9 1 19 -5 22 -11z m-159 -113 c3 -8 1 -15 -4 -15 -6 0 -10 7 -10 15 0 8 2
15 4 15 2 0 6 -7 10 -15z m5 -77 c-5 -9 -13 -19 -18 -22 -11 -7 -9 13 2 32 5
7 3 12 -4 12 -8 0 -8 4 2 16 12 14 14 14 20 -3 3 -10 3 -26 -2 -35z m153 -35
c-6 -11 -11 -12 -16 -4 -4 6 -3 11 3 11 5 0 8 16 5 38 l-4 37 10 -33 c7 -20 7
-39 2 -49z m-5962 -74 c0 -16 -4 -29 -10 -29 -5 0 -7 -8 -3 -17 5 -15 3 -14
-10 2 -8 11 -13 23 -11 27 3 5 -1 8 -8 8 -9 0 -9 3 -2 8 6 4 13 15 17 25 10
26 27 11 27 -24z m5787 -101 c-3 -7 -5 -2 -5 12 0 14 2 19 5 13 2 -7 2 -19 0
-25z m-5850 7 c0 -8 -4 -12 -9 -9 -4 3 -8 0 -8 -5 0 -6 -4 -11 -10 -11 -5 0
-10 7 -10 16 0 8 4 13 9 9 5 -3 12 -1 16 5 9 14 12 13 12 -5z m-100 -27 c-3
-7 -5 -2 -5 12 0 14 2 19 5 13 2 -7 2 -19 0 -25z m6103 17 c0 -8 -4 -15 -10
-15 -5 0 -7 7 -4 15 4 8 8 15 10 15 2 0 4 -7 4 -15z m-6050 1 c0 -3 -4 -8 -10
-11 -5 -3 -10 -1 -10 4 0 6 5 11 10 11 6 0 10 -2 10 -4z m6008 -60 c-3 -47
-18 -54 -29 -13 -4 15 -3 27 1 27 5 0 11 -8 13 -17 4 -14 5 -12 6 5 0 12 -3
22 -8 22 -6 0 -9 9 -8 19 1 16 4 17 15 9 8 -7 12 -27 10 -52z m-6000 12 c-6
-18 -28 -21 -28 -4 0 9 7 16 16 16 9 0 14 -5 12 -12z m197 -176 c-6 -15 -8
-15 -15 5 -5 11 -6 32 -3 44 6 23 7 23 16 -4 5 -15 6 -35 2 -45z m5592 18 c-1
-12 -5 -16 -10 -11 -5 5 -6 14 -3 20 11 16 15 13 13 -9z m30 -2 c-3 -8 -6 -5
-6 6 -1 11 2 17 5 13 3 -3 4 -12 1 -19z m93 -8 c0 -5 -5 -10 -11 -10 -5 0 -7
5 -4 10 3 6 8 10 11 10 2 0 4 -4 4 -10z m24 -36 c12 -32 7 -132 -8 -137 -8 -3
-17 1 -20 9 -3 8 -11 14 -18 14 -17 1 -67 39 -51 40 6 0 15 -5 18 -11 4 -6 13
-8 21 -5 8 3 14 0 14 -6 0 -6 2 -9 5 -6 3 2 -1 16 -7 30 -8 17 -20 25 -40 25
-15 0 -25 -4 -22 -9 3 -4 0 -8 -5 -8 -6 0 -11 4 -11 9 0 14 26 31 36 23 4 -4
2 2 -6 12 -8 11 -10 17 -3 13 6 -4 15 -2 19 4 4 6 19 9 38 5 22 -4 27 -3 16 4
-13 8 -13 10 1 10 9 0 20 -7 23 -16z m-144 -8 c0 -3 -4 -8 -10 -11 -5 -3 -10
-1 -10 4 0 6 5 11 10 11 6 0 10 -2 10 -4z m25 -6 c3 -5 1 -10 -4 -10 -6 0 -11
5 -11 10 0 6 2 10 4 10 3 0 8 -4 11 -10z m-5537 -167 c6 -21 10 -57 11 -80 0
-35 -3 -40 -14 -30 -7 6 -11 15 -8 20 2 4 1 13 -4 20 -10 16 -14 107 -4 107 4
0 13 -17 19 -37z m5422 -62 c0 -6 -4 -13 -10 -16 -5 -3 -10 1 -10 9 0 9 5 16
10 16 6 0 10 -4 10 -9z m-5578 -25 c7 5 9 0 6 -14 -4 -14 0 -23 11 -27 14 -6
14 -8 -3 -21 -11 -8 -14 -14 -8 -14 7 0 12 -10 12 -22 -1 -23 -1 -23 -14 2 -8
14 -17 48 -20 75 -3 28 -3 42 0 32 3 -9 10 -14 16 -11z m88 9 c0 -12 -19 -12
-23 0 -4 9 -1 12 9 8 7 -3 14 -7 14 -8z m5592 -135 c-8 -21 -9 -22 -16 -5 -4
11 -2 22 6 26 17 11 20 6 10 -21z m38 16 c0 -3 -4 -8 -10 -11 -5 -3 -10 -1
-10 4 0 6 5 11 10 11 6 0 10 -2 10 -4z m-70 -16 c0 -5 -4 -10 -10 -10 -5 0
-10 5 -10 10 0 6 5 10 10 10 6 0 10 -4 10 -10z m-5393 -95 c0 -8 -6 -15 -14
-15 -14 0 -17 12 -6 23 11 11 20 8 20 -8z m-67 1 c0 -2 -11 -6 -25 -8 -14 -3
-25 -1 -25 3 0 5 11 9 25 9 14 0 25 -2 25 -4z m-66 -27 c-8 -14 16 -60 28 -53
10 6 11 -17 0 -31 -10 -15 -28 -16 -30 -2 -1 7 -4 24 -8 39 -6 27 0 58 11 58
4 0 3 -5 -1 -11z m178 -15 c-7 -12 -11 -13 -17 -4 -4 7 -2 16 6 21 18 11 23 4
11 -17z m-55 -6 c2 -17 0 -19 -7 -8 -5 8 -6 18 -4 22 8 12 10 10 11 -14z
m5201 -74 c21 -11 22 -13 5 -16 -31 -6 -61 3 -66 22 -5 19 17 17 61 -6z m140
-31 c-14 -18 -19 -12 -11 16 4 16 8 19 14 10 4 -7 3 -19 -3 -26z m-5221 -50
c-3 -10 -5 -2 -5 17 0 19 2 27 5 18 2 -10 2 -26 0 -35z m5189 -10 c-3 -3 -12
-1 -19 5 -8 7 -18 8 -22 4 -5 -4 -5 -1 -1 6 5 8 1 12 -11 12 -17 1 -17 1 0 11
9 5 22 7 27 4 6 -3 10 0 11 7 0 7 5 0 11 -15 5 -16 7 -31 4 -34z m-5136 6 c0
-4 -7 -9 -14 -12 -10 -4 -13 -1 -10 7 3 8 0 17 -5 21 -6 3 -8 11 -5 17 7 11
34 -16 34 -33z m20 -29 c0 -5 -5 -10 -11 -10 -5 0 -7 5 -4 10 3 6 8 10 11 10
2 0 4 -4 4 -10z m-176 -11 c4 6 13 11 21 11 10 0 11 -5 2 -25 -7 -13 -13 -20
-15 -15 -2 5 -10 6 -18 3 -10 -3 -14 2 -14 18 0 17 3 20 9 10 6 -9 11 -10 15
-2z m96 -2 c0 -7 -10 -13 -22 -14 -22 -2 -22 -1 -4 13 24 17 26 17 26 1z m-86
-62 c10 -15 12 -25 6 -25 -7 0 -9 -9 -5 -22 l7 -23 -17 23 c-9 12 -13 27 -10
32 3 6 2 10 -3 10 -5 0 -9 7 -9 15 0 22 13 18 31 -10z m5058 -229 c-9 -13 -23
-21 -30 -18 -7 2 -12 -5 -12 -16 0 -14 -7 -19 -25 -19 -21 0 -24 3 -20 26 3
14 3 20 -1 14 -4 -9 -12 -9 -30 4 -24 15 -24 16 -5 29 20 14 73 16 65 2 -3 -4
5 -12 16 -18 16 -9 22 -8 26 5 3 8 4 21 1 29 -3 8 -1 17 6 19 22 7 28 -33 9
-57z m-175 38 c-3 -3 -12 -4 -19 -1 -8 3 -5 6 6 6 11 1 17 -2 13 -5z m-4737
-31 c0 -26 0 -26 -20 -8 -16 14 -17 20 -8 27 22 13 28 9 28 -19z m25 7 c3 -5
1 -10 -4 -10 -6 0 -11 5 -11 10 0 6 2 10 4 10 3 0 8 -4 11 -10z m185 -10 c0
-13 -5 -18 -15 -14 -16 7 -19 17 -8 27 12 13 23 7 23 -13z m-177 -35 c-3 -9
-8 -14 -10 -11 -3 3 -2 9 2 15 9 16 15 13 8 -4z m44 -41 c-3 -3 -12 -4 -19 -1
-8 3 -5 6 6 6 11 1 17 -2 13 -5z m4480 -76 c-3 -8 -6 -5 -6 6 -1 11 2 17 5 13
3 -3 4 -12 1 -19z m138 -7 c3 -5 2 -12 -3 -15 -5 -3 -9 1 -9 9 0 17 3 19 12 6z
m-145 -36 c0 -5 -37 2 -50 10 -24 15 -7 24 20 10 17 -9 30 -17 30 -20z m-4140
-4 c0 -12 -20 -25 -27 -18 -7 7 6 27 18 27 5 0 9 -4 9 -9z m4300 -41 c-34 -47
-54 -55 -100 -37 -8 3 -22 8 -30 10 -9 3 -5 6 9 6 21 1 22 3 10 19 -7 9 -9 14
-5 10 5 -4 15 -3 23 3 10 9 13 6 13 -12 1 -22 2 -23 14 -6 7 9 17 17 22 17 5
0 18 10 28 21 27 32 41 4 16 -31z m-4240 -1 c0 -5 -11 -9 -24 -9 -13 0 -26 -4
-28 -8 -1 -5 -14 -5 -28 -1 -17 5 -19 7 -7 8 10 1 15 5 12 11 -4 6 1 7 11 3
11 -4 15 -3 11 5 -4 6 1 12 10 14 19 5 43 -9 43 -23z m-110 -9 c0 -5 -2 -10
-4 -10 -3 0 -8 5 -11 10 -3 6 -1 10 4 10 6 0 11 -4 11 -10z m-29 -19 c-7 -5
-10 -14 -7 -20 5 -7 -1 -11 -13 -11 -29 0 -26 -15 2 -16 14 -1 27 6 33 19 8
17 24 26 24 12 0 -3 -3 -5 -7 -4 -5 0 -11 -10 -14 -23 -3 -13 -12 -22 -22 -22
-9 1 -14 -2 -11 -7 12 -20 -23 -7 -45 16 -18 19 -19 24 -6 18 15 -5 17 -2 13
15 -6 21 1 25 47 29 14 2 16 0 6 -6z m3889 -158 c-14 -3 -32 -10 -40 -16 -13
-11 -13 -10 -1 6 7 9 25 16 40 16 l26 -2 -25 -4z m58 -11 c6 -18 -15 -14 -22
4 -4 10 -1 14 6 12 6 -2 14 -10 16 -16z m-3753 -64 c5 4 5 -1 2 -10 -4 -11 -2
-18 5 -18 6 0 9 -2 6 -5 -2 -3 -19 0 -37 6 -26 9 -29 14 -20 25 8 10 15 11 24
4 6 -5 16 -6 20 -2z m3485 -74 c0 5 7 3 15 -4 8 -7 15 -9 15 -5 0 5 3 6 6 2 4
-3 0 -13 -9 -21 -13 -14 -16 -14 -21 0 -4 10 -14 14 -26 11 -17 -4 -18 -2 -9
15 9 17 13 18 20 7 5 -8 9 -10 9 -5z m-3068 -60 c-13 -9 -26 -13 -30 -9 -8 8
17 25 38 25 9 0 6 -6 -8 -16z m3158 -34 c0 -5 -2 -10 -4 -10 -3 0 -8 5 -11 10
-3 6 -1 10 4 10 6 0 11 -4 11 -10z m-3160 -20 c0 -5 -2 -10 -4 -10 -3 0 -8 5
-11 10 -3 6 -1 10 4 10 6 0 11 -4 11 -10z m3214 -9 c10 -15 -18 -19 -32 -5
-11 12 -9 14 7 14 11 0 22 -4 25 -9z m-454 -62 c0 -6 -9 -9 -19 -6 -11 3 -22
-1 -25 -8 -3 -8 4 -15 17 -18 22 -4 22 -4 1 -6 -23 -1 -49 22 -41 36 8 13 67
15 67 2z m33 -26 c-7 -3 -13 -11 -13 -19 0 -8 -5 -14 -11 -14 -5 0 -7 6 -3 13
15 26 27 37 33 31 3 -4 0 -9 -6 -11z m17 -48 c0 -5 -5 -3 -10 5 -5 8 -10 20
-10 25 0 6 5 3 10 -5 5 -8 10 -19 10 -25z m35 15 c-3 -5 -11 -10 -16 -10 -6 0
-7 5 -4 10 3 6 11 10 16 10 6 0 7 -4 4 -10z m-2205 -69 c0 -6 -4 -12 -8 -15
-5 -3 -9 1 -9 9 0 8 4 15 9 15 4 0 8 -4 8 -9z m1675 -21 c-3 -5 -11 -10 -16
-10 -6 0 -7 5 -4 10 3 6 11 10 16 10 6 0 7 -4 4 -10z m-251 -65 c-4 -8 -11
-12 -16 -9 -6 4 -5 10 3 15 19 12 19 11 13 -6z m-1034 -11 c0 -2 -7 -4 -15 -4
-8 0 -15 4 -15 10 0 5 7 7 15 4 8 -4 15 -8 15 -10z m37 0 c-3 -3 -12 -4 -19
-1 -8 3 -5 6 6 6 11 1 17 -2 13 -5z m168 -34 c3 -5 1 -10 -4 -10 -6 0 -11 5
-11 10 0 6 2 10 4 10 3 0 8 -4 11 -10z m1212 -22 c-3 -8 -6 -5 -6 6 -1 11 2
17 5 13 3 -3 4 -12 1 -19z m57 -3 c-4 -8 -13 -15 -22 -15 -13 0 -12 3 4 15 24
18 25 18 18 0z m-1984 -5 c0 -5 -2 -10 -4 -10 -3 0 -8 5 -11 10 -3 6 -1 10 4
10 6 0 11 -4 11 -10z m695 -8 c-3 -3 -11 0 -18 7 -9 10 -8 11 6 5 10 -3 15 -9
12 -12z m1032 -7 c0 -8 -4 -12 -9 -9 -5 3 -6 10 -3 15 9 13 12 11 12 -6z m80
-1 c-3 -3 -12 -4 -19 -1 -8 3 -5 6 6 6 11 1 17 -2 13 -5z m50 0 c-3 -3 -12 -4
-19 -1 -8 3 -5 6 6 6 11 1 17 -2 13 -5z m40 0 c-3 -3 -12 -4 -19 -1 -8 3 -5 6
6 6 11 1 17 -2 13 -5z m-85 -40 c-18 -8 -37 -12 -43 -9 -18 11 0 22 38 22 l38
1 -33 -14z m-245 -60 c-3 -3 -12 -4 -19 -1 -8 3 -5 6 6 6 11 1 17 -2 13 -5z
m-177 -14 c0 -5 -12 -10 -27 -9 l-28 1 25 8 c14 4 26 8 28 9 1 1 2 -3 2 -9z"/>
<path d="M4309 3728 c0 -2 -11 -49 -23 -105 l-22 -103 121 0 122 0 17 88 c10
48 19 95 22 105 5 15 -5 17 -115 17 -67 0 -121 -1 -122 -2z"/>
<path d="M3985 3708 c-2 -7 -16 -69 -31 -138 -14 -69 -30 -142 -36 -163 l-9
-38 -39 35 c-27 24 -52 37 -85 42 -196 29 -363 -101 -421 -327 -23 -90 -16
-259 13 -315 49 -94 143 -143 246 -130 57 8 90 23 137 63 l33 28 -6 -38 -6
-38 116 3 117 3 47 230 c25 127 70 343 98 480 29 138 55 265 58 283 l6 32
-117 0 c-84 0 -118 -3 -121 -12z m-181 -479 c106 -48 50 -303 -74 -340 -102
-31 -165 71 -126 203 33 114 120 173 200 137z"/>
<path d="M7311 3558 c-28 -139 -26 -137 -78 -140 l-46 -3 -18 -90 c-10 -49
-19 -91 -19 -92 0 -2 20 -3 45 -3 25 0 45 -4 45 -9 0 -5 -9 -53 -20 -107 -44
-212 -50 -262 -39 -313 18 -86 79 -122 203 -120 129 2 128 1 148 99 25 124 27
117 -37 112 -80 -7 -85 9 -50 174 15 71 29 137 31 147 5 14 17 17 75 17 48 0
69 4 70 13 0 6 8 49 18 95 l18 82 -69 0 c-77 0 -74 -5 -53 90 26 117 32 110
-98 110 l-113 0 -13 -62z"/>
<path d="M8407 3355 c-9 -60 -21 -148 -27 -195 -6 -47 -13 -97 -16 -112 l-6
-28 96 0 95 0 10 38 c6 20 17 69 25 107 16 76 54 237 63 270 4 16 3 18 -8 7
-7 -7 -14 -29 -16 -48 -2 -42 -6 -47 -35 -49 -27 -2 -34 -35 -8 -35 15 0 18
-6 16 -27 -2 -16 -4 -36 -5 -45 -2 -33 -21 -18 -21 16 0 35 -13 55 -25 36 -3
-5 -2 -10 4 -10 6 0 8 -6 5 -14 -3 -8 -15 -11 -30 -8 -26 5 -33 22 -9 22 8 0
15 5 15 11 0 6 -7 8 -16 5 -8 -3 -27 2 -42 12 -16 10 -23 12 -18 4 6 -10 3
-12 -10 -10 -27 4 -32 24 -22 81 5 27 8 56 6 65 -2 9 -11 -32 -21 -93z"/>
<path d="M4747 3439 c-136 -32 -236 -143 -237 -262 0 -106 58 -163 201 -197
127 -30 139 -35 139 -64 0 -18 -9 -30 -30 -41 -59 -31 -145 -12 -238 52 -30
20 -56 32 -61 27 -4 -5 -31 -37 -59 -70 -29 -34 -52 -66 -52 -72 0 -23 91 -89
156 -112 58 -21 86 -25 174 -24 91 0 114 4 172 28 120 50 185 147 176 266 -7
96 -54 143 -174 174 -120 31 -147 41 -158 58 -8 13 -6 22 8 37 15 16 31 21 71
21 59 0 103 -16 155 -55 l35 -27 67 74 c38 40 68 76 68 80 0 15 -117 89 -164
103 -54 16 -188 18 -249 4z"/>
<path d="M5587 3436 c-41 -15 -56 -25 -104 -70 l-33 -30 10 35 c18 60 19 59
-99 59 l-109 0 -7 -27 c-13 -53 -145 -697 -145 -709 0 -2 54 -4 120 -4 66 0
120 3 120 8 0 4 18 94 40 200 24 120 47 207 60 227 34 55 84 80 157 79 l62 0
12 55 c6 31 17 83 24 115 8 33 12 63 9 68 -8 12 -74 9 -117 -6z"/>
<path d="M6806 3440 c-32 -10 -96 -51 -96 -62 0 -5 -4 -8 -10 -8 -5 0 -7 13
-3 30 l6 30 -112 0 c-107 0 -111 -1 -116 -22 -3 -13 -30 -147 -61 -298 -30
-151 -73 -359 -94 -462 -22 -103 -40 -194 -40 -203 0 -13 19 -15 119 -15 l118
0 33 165 c18 91 35 165 37 165 2 0 15 -13 29 -29 34 -41 111 -65 178 -56 198
26 327 207 330 465 2 162 -38 245 -139 291 -42 20 -129 24 -179 9z m23 -215
c26 -13 40 -36 56 -93 20 -71 -51 -218 -117 -239 -80 -26 -133 22 -132 122 1
95 47 183 109 211 39 17 50 17 84 -1z"/>
<path d="M7903 3441 c-108 -27 -198 -103 -227 -189 -28 -81 -18 -143 32 -195
37 -39 72 -56 161 -77 114 -28 131 -36 131 -64 0 -32 -21 -47 -73 -53 -59 -7
-116 11 -184 57 l-58 40 -62 -68 c-34 -37 -63 -72 -63 -78 0 -19 70 -75 124
-99 104 -46 218 -57 319 -30 155 40 236 129 237 258 0 118 -49 168 -212 211
-106 29 -128 39 -128 62 0 68 153 57 249 -17 13 -10 27 -16 32 -13 5 3 37 37
71 77 l61 71 -32 27 c-18 14 -58 39 -89 55 -49 24 -70 28 -157 30 -55 2 -114
-1 -132 -5z"/>
<path d="M4236 3363 c-8 -38 -38 -180 -66 -318 -28 -137 -55 -269 -60 -292 -6
-23 -10 -47 -10 -52 0 -17 229 -15 235 2 5 11 31 138 115 547 17 80 33 153 36
163 5 15 -5 17 -114 17 l-120 0 -16 -67z"/>
<path d="M5750 3421 c0 -4 -22 -116 -50 -247 -75 -358 -67 -429 55 -485 72
-33 163 -18 237 41 20 17 38 30 40 30 2 0 2 -16 0 -35 l-4 -35 110 0 110 0 7
27 c3 14 35 171 71 347 36 177 68 331 71 344 5 22 5 22 -115 22 l-119 0 -6
-32 c-29 -166 -89 -424 -106 -452 -35 -56 -95 -72 -132 -35 -27 27 -24 61 30
318 23 107 41 196 41 198 0 1 -54 3 -120 3 -66 0 -120 -4 -120 -9z"/>
<path d="M8370 2934 c-46 -19 -72 -56 -78 -110 -10 -89 49 -151 134 -141 81 9
145 101 114 165 -7 15 -14 34 -14 42 -1 20 -64 60 -95 59 -14 0 -42 -7 -61
-15z m124 -44 c29 -45 9 -137 -33 -160 -35 -18 -80 -12 -107 16 -22 21 -25 33
-22 69 1 24 -1 41 -5 38 -5 -3 -7 3 -5 13 2 11 10 20 18 20 8 1 21 2 28 3 7 0
11 4 9 9 -3 4 12 8 32 10 27 1 47 -4 67 -20 l29 -22 -30 34 c-16 19 -21 28
-10 20 11 -8 24 -22 29 -30z m28 -132 c-7 -7 -12 -8 -12 -2 0 14 12 26 19 19
2 -3 -1 -11 -7 -17z"/>
<path d="M7905 870 c3 -5 8 -10 11 -10 2 0 4 5 4 10 0 6 -5 10 -11 10 -5 0 -7
-4 -4 -10z"/>
<path d="M8928 3663 c7 -3 16 -2 19 1 4 3 -2 6 -13 5 -11 0 -14 -3 -6 -6z"/>
<path d="M8960 3659 c0 -5 5 -7 10 -4 6 3 10 8 10 11 0 2 -4 4 -10 4 -5 0 -10
-5 -10 -11z"/>
<path d="M8353 1276 c-3 -6 -3 -8 2 -4 4 4 16 3 26 -3 14 -7 17 -6 13 4 -6 16
-32 18 -41 3z"/>
<path d="M3140 2340 c-9 -6 -10 -10 -3 -10 6 0 15 5 18 10 8 12 4 12 -15 0z"/>
</g>
</svg>
